<svg width="428" height="54" viewBox="0 0 428 54" fill="none" xmlns="http://www.w3.org/2000/svg">
<path d="M16.2812 49.9688C15.5938 49.9688 15.0938 49.8438 14.7812 49.5938C14.4688 49.3438 14.3125 48.9167 14.3125 48.3125V39.9688C13.75 39.5729 12.7083 39.2292 11.1875 38.9375C9.6875 38.625 8.23958 38.4271 6.84375 38.3438C6.42708 39.0521 6.07292 40.1354 5.78125 41.5938L5.59375 42.5625C5.26042 44.2708 4.95833 45.6562 4.6875 46.7188C4.41667 47.7812 4.08333 48.6354 3.6875 49.2812C2.04167 49.2812 1.10417 48.8542 0.875 48C1.27083 47.4375 1.80208 45.4375 2.46875 42C3.03125 39.0625 3.72917 35.1562 4.5625 30.2812C5.52083 24.6146 6.39583 19.8542 7.1875 16C7.97917 12.125 8.8125 8.86458 9.6875 6.21875C10.6458 3.26042 11.5833 1.78125 12.5 1.78125C13.3958 1.78125 14.0833 1.96875 14.5625 2.34375C14.5625 3.92708 14.9792 8.04167 15.8125 14.6875C16.6458 21.3333 17.0625 25.7083 17.0625 27.8125C17.0625 29.8125 17.2917 33.0417 17.75 37.5C18.1875 42.0833 18.4062 45.5208 18.4062 47.8125C18.4062 49.25 17.6979 49.9688 16.2812 49.9688ZM12.9375 36.2188C13.3125 36.2188 13.75 36.1562 14.25 36.0312C14.1875 35.1146 13.9688 32.7917 13.5938 29.0625C12.6146 19.1875 12.125 13.2917 12.125 11.375C12.125 11.0625 12.1354 10.875 12.1562 10.8125C11.7396 11.2292 11.1562 13.1562 10.4062 16.5938C9.65625 20.0312 8.95833 23.7292 8.3125 27.6875C7.66667 31.625 7.3125 34.2292 7.25 35.5C9.0625 35.9792 10.9583 36.2188 12.9375 36.2188ZM50.6875 32.8125C50.375 29.1458 50.2188 26.4792 50.2188 24.8125C50.2188 23.75 50.2604 22.4271 50.3438 20.8438C50.4271 19.2812 50.4688 17.9688 50.4688 16.9062C50.2812 17.4896 49.5625 20.4375 48.3125 25.75C46.9583 31.4167 45.6875 36.1979 44.5 40.0938C43.2083 44.3229 42.1562 46.4375 41.3438 46.4375C40.5312 46.4375 39.8854 46.1875 39.4062 45.6875C38.9271 45.1875 38.6875 44.5208 38.6875 43.6875C38.6875 42.4375 38.3125 40.125 37.5625 36.75C36.8333 33.3542 35.9583 29.75 34.9375 25.9375C33.9167 22.1042 33.0208 19.0312 32.25 16.7188L31.875 23.9375C31.6875 27.25 31.5417 29.9896 31.4375 32.1562C31.3542 34.3229 31.2708 36.6562 31.1875 39.1562C31.0833 42.4479 31.0312 45.1354 31.0312 47.2188L31.0938 48.1875C31.1146 48.4792 31.125 48.7917 31.125 49.125C31.125 49.8542 30.9688 50.3854 30.6562 50.7188C30.3438 51.0729 29.7917 51.25 29 51.25C28.5625 51.25 28.1458 51.0938 27.75 50.7812C27.375 50.4896 27.1875 50.1354 27.1875 49.7188C27.1875 45.5104 27.5208 38.9896 28.1875 30.1562C28.8333 21.6146 29.1562 15.0938 29.1562 10.5938C28.9062 10.1771 28.7812 9.76042 28.7812 9.34375C28.7812 8.82292 29.0208 8.4375 29.5 8.1875C30 7.91667 30.5833 7.78125 31.25 7.78125C31.8125 7.78125 32.8333 9.79167 34.3125 13.8125C35.7917 17.8125 37.2812 22.3542 38.7812 27.4375C40.2812 32.5 41.25 36.1667 41.6875 38.4375C41.9167 37.6875 42.3125 36.1042 42.875 33.6875C44.3542 27.3333 45.7188 21.9271 46.9688 17.4688C47.7812 14.5938 48.5729 12.2917 49.3438 10.5625C50.1562 8.77083 50.875 7.875 51.5 7.875C52.1042 7.875 52.6458 8.04167 53.125 8.375C53.6042 8.6875 53.8438 9.10417 53.8438 9.625C53.8438 12.9375 53.9792 17.5417 54.25 23.4375C54.5208 29.3333 54.6562 33.7812 54.6562 36.7812L54.5938 40.1562C54.5312 41.6562 54.5 42.7812 54.5 43.5312V43.5625C54.5 43.9375 54.625 45.4479 54.875 48.0938L55 49.375C55.1875 49.8542 55.2812 50.2604 55.2812 50.5938C55.2812 51.3021 55.0729 51.9375 54.6562 52.5C54.2604 53.0625 53.75 53.3438 53.125 53.3438C51.7917 53.3438 51.125 52.0104 51.125 49.3438C51.125 47.8438 51.1354 46.4792 51.1562 45.25V41.1562C51.1562 39.2396 51 36.4583 50.6875 32.8125ZM74.5625 9.1875C75.4792 9.60417 75.9375 10.0729 75.9375 10.5938C75.9375 11.0312 75.7604 11.4271 75.4062 11.7812C75.0521 12.1146 74.6042 12.3854 74.0625 12.5938C72.1042 11.9479 70.4896 11.5417 69.2188 11.375C69.2812 12.2708 69.3125 13.1875 69.3125 14.125C69.3125 15.375 69.2708 16.9062 69.1875 18.7188C69.0833 20.9688 69.0312 22.5 69.0312 23.3125L69.2188 24.3125L70.25 24.25C70.6042 24.2292 71.0208 24.2188 71.5 24.2188C73.5625 24.2188 74.5938 24.8021 74.5938 25.9688C74.5938 26.4271 74.3958 26.8333 74 27.1875C73.625 27.5208 73.1458 27.6875 72.5625 27.6875C71.9375 27.6875 71.3333 27.6458 70.75 27.5625H69.125C69.25 29.1875 69.3125 30.8021 69.3125 32.4062C69.3125 33.9479 69.2708 35.875 69.1875 38.1875C69.0833 41.0625 69.0312 43 69.0312 44C69.0312 46.3958 69.0729 47.5938 69.1562 47.5938L71.25 47.5L73.875 47.4375C75.5 47.4375 76.3125 47.9583 76.3125 49C76.3125 49.6042 76.0417 50.0625 75.5 50.375C74.9792 50.6875 74.3333 50.8438 73.5625 50.8438H68.1562C67.5729 50.8438 67.0521 50.6458 66.5938 50.25C66.1562 49.875 65.9271 49.4167 65.9062 48.875V47.1875C65.9062 46.7292 65.8958 46.3021 65.875 45.9062L65.8125 44.5625C65.8125 43.875 65.7604 42.5104 65.6562 40.4688C65.5521 38.4479 65.5 37.0833 65.5 36.375C65.5 34.0208 65.5729 30.9062 65.7188 27.0312C65.8646 23.1562 65.9375 20.0417 65.9375 17.6875C65.9375 17.2292 65.8854 16.3229 65.7812 14.9688C65.6562 13.7812 65.5938 12.8854 65.5938 12.2812C65.5938 9.26042 66.4896 7.75 68.2812 7.75C69.0938 7.75 70.1146 7.88542 71.3438 8.15625C72.5938 8.40625 73.6667 8.75 74.5625 9.1875ZM99.5 50.625C99.2292 50.9375 98.8854 51.0938 98.4688 51.0938C97.5729 51.0938 96.7188 50.0625 95.9062 48C95.0938 46.0208 94.4271 43.75 93.9062 41.1875L93.4688 39.0312C92.2812 32.9688 91.5 29.4792 91.125 28.5625H90.3438C90.3438 29.8125 90.3333 30.9479 90.3125 31.9688C90.2917 32.9896 90.2812 34.1667 90.2812 35.5C90.2812 41.1458 90.6875 45.5938 91.5 48.8438L90.7812 50.5625H89L88.1562 49.625L88.2188 45.3438C88.2188 41.7396 88.0417 35.9167 87.6875 27.875C87.3125 20.0625 87.125 14.2292 87.125 10.375C87.125 8.35417 87.8333 7.34375 89.25 7.34375C90.75 7.34375 92.0938 7.61458 93.2812 8.15625C94.4896 8.67708 95.4375 9.44792 96.125 10.4688C96.8125 11.4688 97.1562 12.6771 97.1562 14.0938V18.5938C97.1562 19.1979 97.0417 19.9062 96.8125 20.7188C96.5833 21.5312 96.3438 22.2292 96.0938 22.8125L94.875 25.125L93.875 27L95.0938 33.0938C95.6771 36.2812 96.25 38.9167 96.8125 41C97.375 43.0625 98.0521 44.9479 98.8438 46.6562L99.25 47.4688C99.4792 47.9062 99.6458 48.2812 99.75 48.5938C99.8542 48.8854 99.9062 49.1771 99.9062 49.4688C99.9062 49.9271 99.7708 50.3125 99.5 50.625ZM93.5312 19.4375C93.8229 18.0208 93.9688 16.7708 93.9688 15.6875C93.9688 14.8958 93.9375 14.2292 93.875 13.6875C93.8125 13.125 93.6875 12.5104 93.5 11.8438C93.2917 11.1771 92.9375 10.6667 92.4375 10.3125C91.9583 9.9375 91.3438 9.73958 90.5938 9.71875L90.5 10.0938C90.4167 10.3229 90.375 10.5 90.375 10.625C90.375 12.75 90.4167 15.2708 90.5 18.1875C90.5833 21.125 90.625 23.5312 90.625 25.4062C91.25 25.0729 91.8125 24.3438 92.3125 23.2188C92.8333 22.0938 93.2396 20.8333 93.5312 19.4375ZM116.562 35.5312C116.667 38.9062 116.719 41.1667 116.719 42.3125V44.2188V45.125C116.698 45.3958 116.688 45.6875 116.688 46H117.531C117.823 46 118.104 45.9896 118.375 45.9688C118.646 45.9479 118.979 45.9375 119.375 45.9375C121.125 45.9375 122 46.4688 122 47.5312C122 48.0729 121.781 48.5417 121.344 48.9375C120.927 49.3125 120.438 49.5 119.875 49.5H117.062C115.062 49.5 113.823 49.4583 113.344 49.375L112.562 49.4375C111.042 49.4375 110.281 48.9583 110.281 48C110.281 47.625 110.406 47.2604 110.656 46.9062C110.906 46.5312 111.156 46.3333 111.406 46.3125H113.219L113.281 45.9062L113.344 45.4688C113.344 43.7604 113.271 41.4896 113.125 38.6562C112.979 35.8229 112.906 33.5625 112.906 31.875C112.906 30.2708 112.969 27.8958 113.094 24.75C113.198 21.25 113.25 18.875 113.25 17.625C113.25 15.1042 113.146 12.8125 112.938 10.75H111.719C111.469 10.75 111.229 10.7604 111 10.7812C110.771 10.8021 110.521 10.8125 110.25 10.8125C109.583 10.8125 109.083 10.6875 108.75 10.4375C108.417 10.1875 108.25 9.73958 108.25 9.09375C108.25 8.11458 109.302 7.625 111.406 7.625H119.031C119.948 7.625 120.604 7.75 121 8C121.417 8.29167 121.625 8.61458 121.625 8.96875C121.625 9.36458 121.438 9.72917 121.062 10.0625C120.688 10.3958 120.26 10.5625 119.781 10.5625H116.5C116.667 12.4375 116.75 14.4167 116.75 16.5C116.75 17.5417 116.698 19.5729 116.594 22.5938C116.469 25.3021 116.406 27.3438 116.406 28.7188C116.406 29.8854 116.458 32.1562 116.562 35.5312ZM139.281 8.0625C140.406 7.60417 141.729 7.375 143.25 7.375C143.896 7.375 144.385 7.53125 144.719 7.84375C145.052 8.13542 145.219 8.52083 145.219 9C145.219 9.4375 145.083 9.82292 144.812 10.1562C144.542 10.4896 144.219 10.6667 143.844 10.6875H140.844C140.01 10.6875 139.271 11.2292 138.625 12.3125C137.979 13.375 137.51 14.7604 137.219 16.4688C136.677 19.6354 136.406 22.1979 136.406 24.1562V24.4688C136.406 26.1562 136.365 28.2083 136.281 30.625C136.177 33.6875 136.125 35.75 136.125 36.8125C136.125 38.2708 136.198 39.5938 136.344 40.7812C136.448 41.5729 136.573 42.2708 136.719 42.875C136.885 43.4583 137.125 44.0417 137.438 44.625C137.729 45.25 138.083 45.7604 138.5 46.1562C138.917 46.5521 139.438 46.875 140.062 47.125C140.667 47.3958 141.375 47.5312 142.188 47.5312C142.708 47.5312 143.167 47.3438 143.562 46.9688C144.104 46.9688 144.562 47.0938 144.938 47.3438C145.312 47.5729 145.5 47.9167 145.5 48.375C145.5 50.0625 144.323 50.9062 141.969 50.9062C141.052 50.9062 140.062 50.7604 139 50.4688C137.938 50.1979 137.135 49.8958 136.594 49.5625C133.76 47.7292 132.344 42.7188 132.344 34.5312V32.8125C132.323 32.25 132.312 31.5729 132.312 30.7812V29.25C132.312 27.2083 132.333 25.6146 132.375 24.4688C132.417 23.3229 132.5 21.9271 132.625 20.2812C132.75 18.6354 132.948 17.2812 133.219 16.2188C133.49 15.1562 133.906 13.9688 134.469 12.6562C134.99 11.4479 135.615 10.5 136.344 9.8125C137.094 9.125 138.073 8.54167 139.281 8.0625ZM167.5 48.4688C167.5 47.1146 167.271 44.9375 166.812 41.9375L166.562 40.5625L160.25 39.625C159.896 40.8542 159.542 42.8333 159.188 45.5625C158.917 47.6667 158.51 49.0521 157.969 49.7188C157.615 50.1354 157.177 50.3438 156.656 50.3438C156.135 50.3438 155.667 50.1771 155.25 49.8438C154.833 49.5104 154.625 49.1042 154.625 48.625C154.625 48.5625 154.656 48.4583 154.719 48.3125L154.781 48.0625C157.635 37.0417 159.771 26.2292 161.188 15.625C161.271 14.7083 161.344 13.8438 161.406 13.0312C161.51 11.4479 161.646 10.1875 161.812 9.25C161.979 8.29167 162.229 7.57292 162.562 7.09375H164.719C165.344 7.09375 165.865 7.23958 166.281 7.53125C166.698 7.80208 166.906 8.19792 166.906 8.71875C166.906 11.9688 167.344 16.7917 168.219 23.1875C169.073 29.6667 169.5 34.2708 169.5 37C169.5 37.3542 169.615 38.0104 169.844 38.9688C170.073 39.9271 170.188 40.5833 170.188 40.9375C170.188 41.3958 170.396 42.6667 170.812 44.75C171.208 46.7292 171.406 48.0521 171.406 48.7188V48.7812C171.406 49.7188 171.052 50.3229 170.344 50.5938C169.385 50.5938 168.667 50.4375 168.188 50.125C167.729 49.8125 167.5 49.2604 167.5 48.4688ZM160.5 37.25C161.208 37.7083 163.094 38.0521 166.156 38.2812C166.031 37.6562 165.969 36.8646 165.969 35.9062C165.969 33.8854 165.885 31.7708 165.719 29.5625C165.552 27.3333 165.292 24.5417 164.938 21.1875C164.646 18.6667 164.417 16.4583 164.25 14.5625C162.312 25.2917 161.062 32.8542 160.5 37.25ZM195.438 36.6875C196.604 40.8125 197.344 43.2812 197.656 44.0938C198.51 35.0521 198.938 24.2292 198.938 11.625C198.938 11.3333 198.927 11.0521 198.906 10.7812L198.844 9.90625C198.844 8.63542 199.375 8 200.438 8C201.021 8 201.469 8.23958 201.781 8.71875C202.094 9.19792 202.25 9.79167 202.25 10.5V15.3438C202.208 19.1146 202.083 23.5833 201.875 28.75C201.688 33.9167 201.417 38.5312 201.062 42.5938C200.729 46.6354 200.354 48.9896 199.938 49.6562C198.75 50.0104 198 50.1875 197.688 50.1875C197.146 50.1875 196.75 50.0521 196.5 49.7812C196.25 49.4896 196.052 49.0104 195.906 48.3438C195.76 47.7396 195.635 47.3229 195.531 47.0938L195.562 46.9688V46.8125C195.562 45.8333 194.854 43.1979 193.438 38.9062C192.021 34.6146 190.385 29.9896 188.531 25.0312C186.698 20.0729 185.292 16.4688 184.312 14.2188V46.4375C184.312 46.4375 184.396 46.5833 184.562 46.875C184.833 47.3125 184.969 47.6667 184.969 47.9375C184.969 48.4792 184.771 48.9479 184.375 49.3438C184 49.7396 183.552 49.9375 183.031 49.9375C181.635 49.9375 180.938 48.6354 180.938 46.0312L180.875 35.0625L180.812 24.0938C180.812 22.7604 180.875 20.7708 181 18.125C181.125 15.4583 181.188 13.4688 181.188 12.1562C181.188 10.1562 181.969 8.58333 183.531 7.4375V7.84375C183.698 7.73958 183.854 7.6875 184 7.6875C185 7.6875 186.25 9.40625 187.75 12.8438C188.917 15.5312 190 18.4688 191 21.6562C192.021 24.8438 193.188 28.7604 194.5 33.4062L195.438 36.6875ZM238.75 7.25C238.5 8.08333 238.375 8.89583 238.375 9.6875C238.375 11.3333 238.594 13.0104 239.031 14.7188C239.469 16.4062 240.052 17.9688 240.781 19.4062L241.25 20.3438C243.25 24.2812 244.583 26.9583 245.25 28.375C245.979 29.8958 246.562 31.625 247 33.5625C247.438 35.4792 247.656 37.3958 247.656 39.3125C247.656 40.6458 247.469 42 247.094 43.375C246.74 44.75 246.229 46.0417 245.562 47.25C244.854 48.5208 243.917 49.5312 242.75 50.2812C241.583 51.0312 240.302 51.4062 238.906 51.4062C237.365 51.4062 236.052 51.125 234.969 50.5625C234.281 50.2292 233.938 49.7917 233.938 49.25C233.938 48.75 234.062 48.3438 234.312 48.0312C234.562 47.6979 234.917 47.5312 235.375 47.5312C235.875 47.5312 236.51 47.6875 237.281 48C238.031 48.3333 238.573 48.5 238.906 48.5C239.698 48.5 240.427 48.1458 241.094 47.4375C241.781 46.7292 242.323 45.8125 242.719 44.6875C243.094 43.6458 243.375 42.6146 243.562 41.5938C243.771 40.5729 243.875 39.6771 243.875 38.9062C243.875 37.0938 243.583 35.1771 243 33.1562C242.417 31.1354 241.635 29.1562 240.656 27.2188L239.75 25.4375C238.729 23.4583 237.906 21.7917 237.281 20.4375C236.656 19.0625 236.115 17.6146 235.656 16.0938C235.031 14.0521 234.719 12.0729 234.719 10.1562C234.719 8.61458 234.979 7.16667 235.5 5.8125C236.021 4.4375 236.823 3.27083 237.906 2.3125C238.99 1.3125 240.302 0.8125 241.844 0.8125C242.615 0.8125 243.365 1.03125 244.094 1.46875C244.823 1.90625 245.333 2.45833 245.625 3.125L244.531 4.5C243.469 4.5 242.635 4.29167 242.031 3.875C241.281 3.95833 240.604 4.32292 240 4.96875C239.417 5.61458 239 6.375 238.75 7.25ZM269.812 18.0312C268.562 22.1771 267.927 25.2708 267.906 27.3125V46.5938C267.906 49.4479 267.208 50.875 265.812 50.875C265.042 50.875 264.448 50.4062 264.031 49.4688C264.51 48.5104 264.75 44.8958 264.75 38.625C264.75 37.5625 264.635 35.9375 264.406 33.75C264.156 31.3542 264.021 29.8542 264 29.25V27.5938C263.562 26.5312 262.771 24.5417 261.625 21.625C260.5 18.6875 259.604 16.2604 258.938 14.3438C258.146 12.0312 257.75 10.5 257.75 9.75V9.40625L259.188 8.34375C259.917 8.38542 260.688 9.32292 261.5 11.1562C261.979 12.2604 262.479 13.6667 263 15.375C263.542 17.0625 263.99 18.5938 264.344 19.9688C264.719 21.3229 264.958 22.1979 265.062 22.5938C265.25 22.0521 265.583 20.4583 266.062 17.8125C266.542 15.1667 267.125 12.7604 267.812 10.5938C268.479 8.48958 269.229 7.4375 270.062 7.4375C270.458 7.4375 270.812 7.57292 271.125 7.84375C271.458 8.09375 271.625 8.40625 271.625 8.78125C271.625 10.9479 271.021 14.0312 269.812 18.0312ZM288.531 8.0625C289.656 7.60417 290.979 7.375 292.5 7.375C293.146 7.375 293.635 7.53125 293.969 7.84375C294.302 8.13542 294.469 8.52083 294.469 9C294.469 9.4375 294.333 9.82292 294.062 10.1562C293.792 10.4896 293.469 10.6667 293.094 10.6875H290.094C289.26 10.6875 288.521 11.2292 287.875 12.3125C287.229 13.375 286.76 14.7604 286.469 16.4688C285.927 19.6354 285.656 22.1979 285.656 24.1562V24.4688C285.656 26.1562 285.615 28.2083 285.531 30.625C285.427 33.6875 285.375 35.75 285.375 36.8125C285.375 38.2708 285.448 39.5938 285.594 40.7812C285.698 41.5729 285.823 42.2708 285.969 42.875C286.135 43.4583 286.375 44.0417 286.688 44.625C286.979 45.25 287.333 45.7604 287.75 46.1562C288.167 46.5521 288.688 46.875 289.312 47.125C289.917 47.3958 290.625 47.5312 291.438 47.5312C291.958 47.5312 292.417 47.3438 292.812 46.9688C293.354 46.9688 293.812 47.0938 294.188 47.3438C294.562 47.5729 294.75 47.9167 294.75 48.375C294.75 50.0625 293.573 50.9062 291.219 50.9062C290.302 50.9062 289.312 50.7604 288.25 50.4688C287.188 50.1979 286.385 49.8958 285.844 49.5625C283.01 47.7292 281.594 42.7188 281.594 34.5312V32.8125C281.573 32.25 281.562 31.5729 281.562 30.7812V29.25C281.562 27.2083 281.583 25.6146 281.625 24.4688C281.667 23.3229 281.75 21.9271 281.875 20.2812C282 18.6354 282.198 17.2812 282.469 16.2188C282.74 15.1562 283.156 13.9688 283.719 12.6562C284.24 11.4479 284.865 10.5 285.594 9.8125C286.344 9.125 287.323 8.54167 288.531 8.0625ZM316.75 48.4688C316.75 47.1146 316.521 44.9375 316.062 41.9375L315.812 40.5625L309.5 39.625C309.146 40.8542 308.792 42.8333 308.438 45.5625C308.167 47.6667 307.76 49.0521 307.219 49.7188C306.865 50.1354 306.427 50.3438 305.906 50.3438C305.385 50.3438 304.917 50.1771 304.5 49.8438C304.083 49.5104 303.875 49.1042 303.875 48.625C303.875 48.5625 303.906 48.4583 303.969 48.3125L304.031 48.0625C306.885 37.0417 309.021 26.2292 310.438 15.625C310.521 14.7083 310.594 13.8438 310.656 13.0312C310.76 11.4479 310.896 10.1875 311.062 9.25C311.229 8.29167 311.479 7.57292 311.812 7.09375H313.969C314.594 7.09375 315.115 7.23958 315.531 7.53125C315.948 7.80208 316.156 8.19792 316.156 8.71875C316.156 11.9688 316.594 16.7917 317.469 23.1875C318.323 29.6667 318.75 34.2708 318.75 37C318.75 37.3542 318.865 38.0104 319.094 38.9688C319.323 39.9271 319.438 40.5833 319.438 40.9375C319.438 41.3958 319.646 42.6667 320.062 44.75C320.458 46.7292 320.656 48.0521 320.656 48.7188V48.7812C320.656 49.7188 320.302 50.3229 319.594 50.5938C318.635 50.5938 317.917 50.4375 317.438 50.125C316.979 49.8125 316.75 49.2604 316.75 48.4688ZM309.75 37.25C310.458 37.7083 312.344 38.0521 315.406 38.2812C315.281 37.6562 315.219 36.8646 315.219 35.9062C315.219 33.8854 315.135 31.7708 314.969 29.5625C314.802 27.3333 314.542 24.5417 314.188 21.1875C313.896 18.6667 313.667 16.4583 313.5 14.5625C311.562 25.2917 310.312 32.8542 309.75 37.25ZM352.562 32.8125C352.25 29.1458 352.094 26.4792 352.094 24.8125C352.094 23.75 352.135 22.4271 352.219 20.8438C352.302 19.2812 352.344 17.9688 352.344 16.9062C352.156 17.4896 351.438 20.4375 350.188 25.75C348.833 31.4167 347.562 36.1979 346.375 40.0938C345.083 44.3229 344.031 46.4375 343.219 46.4375C342.406 46.4375 341.76 46.1875 341.281 45.6875C340.802 45.1875 340.562 44.5208 340.562 43.6875C340.562 42.4375 340.188 40.125 339.438 36.75C338.708 33.3542 337.833 29.75 336.812 25.9375C335.792 22.1042 334.896 19.0312 334.125 16.7188L333.75 23.9375C333.562 27.25 333.417 29.9896 333.312 32.1562C333.229 34.3229 333.146 36.6562 333.062 39.1562C332.958 42.4479 332.906 45.1354 332.906 47.2188L332.969 48.1875C332.99 48.4792 333 48.7917 333 49.125C333 49.8542 332.844 50.3854 332.531 50.7188C332.219 51.0729 331.667 51.25 330.875 51.25C330.438 51.25 330.021 51.0938 329.625 50.7812C329.25 50.4896 329.062 50.1354 329.062 49.7188C329.062 45.5104 329.396 38.9896 330.062 30.1562C330.708 21.6146 331.031 15.0938 331.031 10.5938C330.781 10.1771 330.656 9.76042 330.656 9.34375C330.656 8.82292 330.896 8.4375 331.375 8.1875C331.875 7.91667 332.458 7.78125 333.125 7.78125C333.688 7.78125 334.708 9.79167 336.188 13.8125C337.667 17.8125 339.156 22.3542 340.656 27.4375C342.156 32.5 343.125 36.1667 343.562 38.4375C343.792 37.6875 344.188 36.1042 344.75 33.6875C346.229 27.3333 347.594 21.9271 348.844 17.4688C349.656 14.5938 350.448 12.2917 351.219 10.5625C352.031 8.77083 352.75 7.875 353.375 7.875C353.979 7.875 354.521 8.04167 355 8.375C355.479 8.6875 355.719 9.10417 355.719 9.625C355.719 12.9375 355.854 17.5417 356.125 23.4375C356.396 29.3333 356.531 33.7812 356.531 36.7812L356.469 40.1562C356.406 41.6562 356.375 42.7812 356.375 43.5312V43.5625C356.375 43.9375 356.5 45.4479 356.75 48.0938L356.875 49.375C357.062 49.8542 357.156 50.2604 357.156 50.5938C357.156 51.3021 356.948 51.9375 356.531 52.5C356.135 53.0625 355.625 53.3438 355 53.3438C353.667 53.3438 353 52.0104 353 49.3438C353 47.8438 353.01 46.4792 353.031 45.25V41.1562C353.031 39.2396 352.875 36.4583 352.562 32.8125ZM383.219 19.375C383.469 21.125 383.594 23.0208 383.594 25.0625V25.5312L383.656 29.1562L383.719 32.7812C383.719 45.0521 380.875 51.1875 375.188 51.1875C374.042 51.1875 373 50.8438 372.062 50.1562C371.125 49.4688 370.375 48.5104 369.812 47.2812C368.604 44.7604 367.823 41.9271 367.469 38.7812C367.115 35.8646 366.938 33.0833 366.938 30.4375C366.938 29.9167 366.948 29.4896 366.969 29.1562C366.99 28.8229 367 28.4375 367 28C367 27.7917 366.969 27.6875 366.906 27.6875V26.5312C366.906 26.1979 366.927 25.2812 366.969 23.7812C366.969 23.1146 366.979 22.5417 367 22.0625C367.021 20.9167 367.062 19.8958 367.125 19C367.208 18.1042 367.333 16.9375 367.5 15.5C367.625 14.3333 367.802 13.3021 368.031 12.4062C368.26 11.4896 368.562 10.5417 368.938 9.5625C369.25 8.70833 369.646 8.0625 370.125 7.625C370.604 7.16667 371.135 6.9375 371.719 6.9375C373.427 6.9375 374.969 7.25 376.344 7.875C377.719 8.5 378.865 9.36458 379.781 10.4688C380.635 11.5312 381.354 12.8333 381.938 14.375C382.542 15.9167 382.969 17.5833 383.219 19.375ZM376.812 11.1875C376.021 10.625 375.135 10.3438 374.156 10.3438C372.698 10.3438 371.729 11.1667 371.25 12.8125C371.021 13.5833 370.865 14.3646 370.781 15.1562C370.698 15.9271 370.656 16.8438 370.656 17.9062C370.656 18.7188 370.667 19.4062 370.688 19.9688C370.708 20.5312 370.719 21.1042 370.719 21.6875C370.719 22.2083 370.667 23.1979 370.562 24.6562C370.458 26.1146 370.406 27.0938 370.406 27.5938C370.406 29.1354 370.49 31.4167 370.656 34.4375C370.823 37.6458 371.24 40.7604 371.906 43.7812C372.219 45.2604 372.635 46.4271 373.156 47.2812C373.698 48.1146 374.292 48.5312 374.938 48.5312C375.688 48.5312 376.375 48.2292 377 47.625C377.646 47 378.156 46.1458 378.531 45.0625C379.281 42.9167 379.771 40.5833 380 38.0625C380.188 35.8125 380.281 33.9167 380.281 32.375C380.281 30.5625 380.146 28.0625 379.875 24.875C379.583 21.4375 379.438 18.9688 379.438 17.4688V16.3438C379.396 15.3021 379.146 14.3229 378.688 13.4062C378.229 12.4688 377.604 11.7292 376.812 11.1875ZM407 50.625C406.729 50.9375 406.385 51.0938 405.969 51.0938C405.073 51.0938 404.219 50.0625 403.406 48C402.594 46.0208 401.927 43.75 401.406 41.1875L400.969 39.0312C399.781 32.9688 399 29.4792 398.625 28.5625H397.844C397.844 29.8125 397.833 30.9479 397.812 31.9688C397.792 32.9896 397.781 34.1667 397.781 35.5C397.781 41.1458 398.188 45.5938 399 48.8438L398.281 50.5625H396.5L395.656 49.625L395.719 45.3438C395.719 41.7396 395.542 35.9167 395.188 27.875C394.812 20.0625 394.625 14.2292 394.625 10.375C394.625 8.35417 395.333 7.34375 396.75 7.34375C398.25 7.34375 399.594 7.61458 400.781 8.15625C401.99 8.67708 402.938 9.44792 403.625 10.4688C404.312 11.4688 404.656 12.6771 404.656 14.0938V18.5938C404.656 19.1979 404.542 19.9062 404.312 20.7188C404.083 21.5312 403.844 22.2292 403.594 22.8125L402.375 25.125L401.375 27L402.594 33.0938C403.177 36.2812 403.75 38.9167 404.312 41C404.875 43.0625 405.552 44.9479 406.344 46.6562L406.75 47.4688C406.979 47.9062 407.146 48.2812 407.25 48.5938C407.354 48.8854 407.406 49.1771 407.406 49.4688C407.406 49.9271 407.271 50.3125 407 50.625ZM401.031 19.4375C401.323 18.0208 401.469 16.7708 401.469 15.6875C401.469 14.8958 401.438 14.2292 401.375 13.6875C401.312 13.125 401.188 12.5104 401 11.8438C400.792 11.1771 400.438 10.6667 399.938 10.3125C399.458 9.9375 398.844 9.73958 398.094 9.71875L398 10.0938C397.917 10.3229 397.875 10.5 397.875 10.625C397.875 12.75 397.917 15.2708 398 18.1875C398.083 21.125 398.125 23.5312 398.125 25.4062C398.75 25.0729 399.312 24.3438 399.812 23.2188C400.333 22.0938 400.74 20.8333 401.031 19.4375ZM425.812 9.1875C426.729 9.60417 427.188 10.0729 427.188 10.5938C427.188 11.0312 427.01 11.4271 426.656 11.7812C426.302 12.1146 425.854 12.3854 425.312 12.5938C423.354 11.9479 421.74 11.5417 420.469 11.375C420.531 12.2708 420.562 13.1875 420.562 14.125C420.562 15.375 420.521 16.9062 420.438 18.7188C420.333 20.9688 420.281 22.5 420.281 23.3125L420.469 24.3125L421.5 24.25C421.854 24.2292 422.271 24.2188 422.75 24.2188C424.812 24.2188 425.844 24.8021 425.844 25.9688C425.844 26.4271 425.646 26.8333 425.25 27.1875C424.875 27.5208 424.396 27.6875 423.812 27.6875C423.188 27.6875 422.583 27.6458 422 27.5625H420.375C420.5 29.1875 420.562 30.8021 420.562 32.4062C420.562 33.9479 420.521 35.875 420.438 38.1875C420.333 41.0625 420.281 43 420.281 44C420.281 46.3958 420.323 47.5938 420.406 47.5938L422.5 47.5L425.125 47.4375C426.75 47.4375 427.562 47.9583 427.562 49C427.562 49.6042 427.292 50.0625 426.75 50.375C426.229 50.6875 425.583 50.8438 424.812 50.8438H419.406C418.823 50.8438 418.302 50.6458 417.844 50.25C417.406 49.875 417.177 49.4167 417.156 48.875V47.1875C417.156 46.7292 417.146 46.3021 417.125 45.9062L417.062 44.5625C417.062 43.875 417.01 42.5104 416.906 40.4688C416.802 38.4479 416.75 37.0833 416.75 36.375C416.75 34.0208 416.823 30.9062 416.969 27.0312C417.115 23.1562 417.188 20.0417 417.188 17.6875C417.188 17.2292 417.135 16.3229 417.031 14.9688C416.906 13.7812 416.844 12.8854 416.844 12.2812C416.844 9.26042 417.74 7.75 419.531 7.75C420.344 7.75 421.365 7.88542 422.594 8.15625C423.844 8.40625 424.917 8.75 425.812 9.1875Z" fill="#436D21"/>
</svg>
