<svg xmlns="http://www.w3.org/2000/svg" width="512" height="512" viewBox="0 0 512 512" version="1.1">
	<path d="M 240.550 14.919 C 240.238 15.425, 241.357 18.050, 243.038 20.754 C 247.231 27.499, 248.985 34.865, 248.930 45.500 C 248.846 62.169, 243.424 75.213, 231.190 88.182 C 223.220 96.630, 217.757 100.538, 211.623 102.178 C 207.261 103.345, 206.589 103.223, 197.966 99.703 C 185.531 94.626, 182.681 94.782, 187.023 100.302 C 190.058 104.161, 194.715 114.671, 196.637 122 C 199.225 131.870, 199.007 150.987, 196.236 157.223 C 192.811 164.927, 185.266 168.094, 179.154 164.392 C 177.694 163.508, 172.900 157.876, 168.500 151.876 C 164.100 145.876, 158.101 138.612, 155.170 135.734 L 149.839 130.500 150.530 136.208 C 152.912 155.909, 136.916 168.270, 120.230 159.623 C 116.550 157.715, 111.700 151.602, 108.828 145.250 C 106.780 140.720, 104 139.530, 104 143.184 C 104 149.620, 96.370 158.752, 87.045 163.477 C 77.598 168.264, 71.060 169.104, 45.680 168.788 C 24.747 168.528, 22.174 168.678, 19.133 170.336 C 15.842 172.131, 15.777 172.294, 16.215 177.585 C 16.462 180.562, 16.869 183.202, 17.119 183.452 C 17.368 183.702, 20.011 183.191, 22.991 182.318 C 27.580 180.973, 29.411 180.914, 34.955 181.935 C 49.281 184.572, 62.878 194.325, 66.324 204.437 C 69.477 213.690, 68.034 227.111, 62.776 237.432 C 61.675 239.595, 57.449 244.854, 53.387 249.119 C 46.127 256.740, 44.222 259.918, 47.750 258.521 C 48.713 258.140, 52.647 257.163, 56.493 256.350 C 67.363 254.053, 77.046 256.292, 85.158 262.979 C 92.486 269.019, 93.865 278.049, 89.540 291.669 C 88.188 295.929, 87.263 299.596, 87.486 299.819 C 87.708 300.042, 89.839 298.627, 92.220 296.676 C 97.432 292.405, 107.725 287.391, 113.168 286.472 C 116.208 285.958, 117.574 286.210, 119.062 287.557 C 123.576 291.641, 120.082 313.520, 112.690 327.463 C 108.569 335.236, 99.181 344.955, 91.183 349.729 C 87.709 351.803, 84.784 353.921, 84.683 354.435 C 84.582 354.949, 86.573 355.898, 89.108 356.545 C 100.208 359.376, 111.822 368.997, 116.512 379.247 C 121.154 389.392, 122.472 396.506, 122.486 411.500 C 122.504 429.640, 119.278 442.678, 110.469 460.060 L 107.965 465.002 114.483 468.215 C 120.187 471.028, 121.176 471.246, 122.414 469.965 C 123.192 469.159, 126.145 463.325, 128.977 457 C 136.606 439.965, 140.714 433.117, 146.979 427 C 155.941 418.249, 180.944 404.414, 194.211 400.866 C 201.205 398.995, 205.803 400.771, 213.065 408.147 C 216.329 411.462, 219.032 413.798, 219.071 413.337 C 219.109 412.877, 219.084 409.118, 219.013 404.984 L 218.885 397.467 225.033 388.984 C 228.414 384.318, 231.989 378.925, 232.977 377 C 236.360 370.412, 239.075 359.545, 240.591 346.523 C 243.564 320.985, 246.312 315, 255.068 315 C 261.415 315, 262.875 318.198, 266.019 339 C 267.142 346.425, 268.731 355.200, 269.551 358.500 C 271.844 367.725, 278.154 379.784, 284.635 387.323 C 294.607 398.923, 295 399.637, 295 406.148 C 295 409.367, 295.255 412, 295.567 412 C 295.879 412, 298.692 409.329, 301.817 406.064 C 305.087 402.648, 308.758 399.819, 310.463 399.402 C 316.790 397.853, 331.413 402.900, 347.837 412.302 C 366.593 423.039, 371.120 428.184, 383.353 452.670 C 387.522 461.014, 391.371 468.112, 391.908 468.443 C 392.964 469.096, 405 463.155, 405 461.981 C 405 461.589, 402.952 456.945, 400.449 451.661 C 389.141 427.789, 387.068 400.605, 394.965 379.753 C 399.151 368.699, 410.786 359.022, 423.636 355.907 C 426.311 355.259, 428.868 354.399, 429.317 353.997 C 429.766 353.595, 427.516 351.796, 424.317 349.999 C 416.225 345.453, 405.311 334.073, 400.822 325.500 C 394.072 312.611, 390.928 294.403, 394.557 289.223 C 397.645 284.814, 407.995 287.323, 420.442 295.498 C 427.441 300.095, 429.422 300.507, 427.168 296.897 C 420.026 285.461, 417.426 274.944, 420.346 269.299 C 422.761 264.628, 430.562 258.306, 436.236 256.422 C 442.307 254.405, 453.817 254.920, 461.304 257.542 C 469.251 260.326, 468.776 258.703, 458.069 246.500 C 454.691 242.650, 450.256 236.150, 448.214 232.054 C 444.634 224.877, 444.500 224.229, 444.500 214.054 C 444.500 204.768, 444.813 202.832, 447.108 197.940 C 452.515 186.410, 466.482 176.401, 478.711 175.293 C 484.070 174.807, 491.658 175.780, 496.252 177.543 C 497.771 178.126, 498 177.565, 498 173.262 C 498 167.689, 496.822 166.136, 490.463 163.323 C 487.010 161.796, 483.723 161.608, 464.905 161.860 C 445.780 162.116, 442.295 161.908, 434.436 160.041 C 421.454 156.958, 413.806 151.681, 411.549 144.250 C 410.622 141.200, 409.764 141.416, 407.579 145.250 C 404.818 150.097, 398.006 156.903, 393.682 159.138 C 384.109 164.083, 373.622 161.921, 368.323 153.909 C 365.761 150.036, 365.500 148.827, 365.504 140.821 C 365.505 135.969, 365.253 132, 364.942 132 C 364.631 132, 363.300 133.462, 361.986 135.250 C 358.791 139.592, 342.843 157.931, 339.851 160.702 C 338.543 161.914, 335.806 163.601, 333.768 164.452 C 322.325 169.234, 317 161.854, 317 141.213 C 317 125.860, 321.537 111.153, 328.838 102.838 C 330.577 100.857, 332 98.958, 332 98.618 C 332 97.363, 327.286 98.067, 319.500 100.485 C 315.100 101.852, 310.020 102.977, 308.210 102.985 C 303.194 103.008, 297.177 99.412, 289.950 92.072 C 275.259 77.153, 267.209 56.878, 268.194 37.282 C 268.679 27.631, 269.990 24.203, 275.106 19.201 C 276.894 17.453, 278.049 15.716, 277.673 15.340 C 276.241 13.908, 263.607 21.476, 260.403 25.685 L 257.218 29.870 254.191 25.001 C 252.527 22.323, 249.260 18.752, 246.932 17.066 C 242.415 13.794, 241.447 13.468, 240.550 14.919 M 258.231 98.500 C 257.533 118.300, 256.921 140.800, 256.869 148.500 C 256.818 156.200, 256.489 166.775, 256.138 172 L 255.500 181.500 252.368 177.263 C 244.587 166.737, 235.505 145.055, 232.120 128.924 C 230.300 120.253, 230.138 119.899, 230.086 124.500 C 229.931 138.287, 239.071 162.837, 251.087 180.908 L 256.013 188.317 255.356 202.094 C 254.994 209.671, 254.337 216.454, 253.896 217.168 C 252.754 219.017, 248.297 214.597, 239.573 202.961 C 231.458 192.139, 224.987 180.070, 219.485 165.500 C 213.181 148.805, 212.231 150.736, 218.255 168 C 222.593 180.435, 226.202 187.969, 232.303 197.329 C 237.664 205.553, 247.418 217.893, 251.179 221.207 C 253.069 222.873, 253.079 223.373, 251.590 242.207 C 250.752 252.818, 249.758 269.488, 249.383 279.250 C 248.748 295.769, 248.569 297, 246.804 297 C 245.674 297, 235.634 287.847, 221.954 274.347 L 199 251.694 198.992 244.597 C 198.982 236.246, 197.368 221.161, 196.128 217.834 C 195.608 216.439, 195.464 222.036, 195.771 231.750 C 196.373 250.834, 196.295 250.938, 187.845 242.250 C 182.474 236.727, 182.206 236.196, 181.064 228.810 C 179.424 218.210, 174.873 201.266, 170.485 189.418 C 166.140 177.689, 160.062 164.605, 159.308 165.359 C 159.014 165.652, 160.360 169.629, 162.297 174.196 C 167.270 185.917, 172.541 202.875, 174.838 214.542 C 177.909 230.134, 178.208 233.003, 176.762 232.980 C 176.068 232.969, 170.550 229.131, 164.500 224.451 C 158.450 219.771, 152.076 214.842, 150.336 213.497 C 148.590 212.148, 146.637 209.360, 145.978 207.276 C 144.476 202.529, 134.807 181.860, 134.317 182.349 C 134.118 182.549, 136.016 187.986, 138.536 194.431 C 141.056 200.876, 142.979 206.771, 142.809 207.531 C 142.590 208.511, 140.025 207.446, 134 203.873 C 121.462 196.439, 104.037 188.393, 91 184.019 C 76.165 179.042, 69.673 177.916, 81.886 182.439 C 101.477 189.694, 126.959 203.329, 146.570 217.049 C 161.555 227.533, 186.311 248.738, 212 273.093 C 239.904 299.549, 246.055 303.832, 254.205 302.477 C 265.073 300.671, 283.492 286.878, 317.151 255.342 C 339.157 234.722, 347.838 227.623, 366 215.391 C 385.088 202.536, 397.706 195.075, 419.500 183.757 C 429.950 178.330, 437.375 174.184, 436 174.544 C 425.488 177.297, 398.226 190.191, 381.737 200.208 C 376.310 203.506, 371.675 206.008, 371.437 205.770 C 370.794 205.127, 375.315 192.309, 378.410 186 C 380.504 181.733, 380.655 181.060, 379.083 183 C 375.582 187.322, 371.214 196.262, 369.380 202.857 C 367.625 209.171, 367.564 209.241, 359.057 214.988 C 354.351 218.167, 347.350 223.082, 343.500 225.911 C 336.649 230.943, 336.493 231, 336.190 228.596 C 335.558 223.577, 344.884 188.897, 351.021 173.447 C 352.703 169.212, 353.866 165.533, 353.605 165.272 C 351.443 163.110, 337.326 203.166, 333.656 221.876 L 331.229 234.251 325.134 240.346 C 317.027 248.453, 316.500 247.883, 316.500 231.021 C 316.500 221.982, 316.202 218.643, 315.500 219.821 C 314.950 220.744, 314.476 228.005, 314.446 235.956 L 314.391 250.412 304.446 259.353 C 291.488 271.001, 265.273 293.158, 261.719 295.465 C 260.189 296.458, 258.624 296.957, 258.241 296.574 C 257.059 295.393, 257.794 256.578, 259.387 236 L 260.896 216.500 266.846 211 C 283.101 195.973, 292.906 179.789, 298.919 158.061 C 301.519 148.665, 300.039 150.007, 296.152 160.571 C 288.546 181.242, 282.052 191.863, 269.951 203.424 C 265.490 207.686, 261.717 211.022, 261.567 210.837 C 261.417 210.652, 261.614 195.354, 262.005 176.842 L 262.716 143.183 266.208 138.842 C 270.442 133.578, 276.673 124.275, 280.503 117.500 C 284.255 110.862, 282.988 112.276, 272.656 126.250 C 267.878 132.713, 263.526 138, 262.985 138 C 262.384 138, 261.962 131.853, 261.903 122.250 C 261.849 113.588, 261.287 96.600, 260.653 84.500 L 259.500 62.500 258.231 98.500 M 377 226.651 C 364.555 228.539, 355.337 230.368, 354.550 231.108 C 353.233 232.345, 354.897 232.256, 367.576 230.410 C 388.290 227.394, 413.712 228.518, 425.412 232.967 C 430.373 234.853, 429.516 233.150, 424.400 230.957 C 415.530 227.155, 408.253 226.023, 393.500 226.151 C 385.800 226.218, 378.375 226.443, 377 226.651 M 146 230.105 C 137.223 233.230, 125.217 234.915, 107.238 235.545 C 93.523 236.025, 79.816 237.538, 81.196 238.419 C 81.363 238.526, 92.525 238.286, 106 237.885 C 122.382 237.398, 132.511 236.651, 136.568 235.632 C 144.941 233.529, 154 230.045, 154 228.928 C 154 227.614, 152.286 227.866, 146 230.105 M 406 252.986 C 390.401 258.854, 380.047 259.153, 352.035 254.544 C 335.764 251.867, 328.497 251.387, 327.546 252.926 C 327.231 253.436, 329.567 254.113, 332.736 254.432 C 335.906 254.750, 345.475 256.137, 354 257.512 C 375.963 261.057, 382.176 261.414, 391.144 259.645 C 398.378 258.218, 412.391 252.986, 414.450 250.943 C 415.922 249.482, 414.223 249.893, 406 252.986 M 165.500 253.565 C 146.011 256.534, 129.973 261.840, 116.239 269.860 C 107.159 275.163, 105.817 277.132, 114.151 272.921 C 132.607 263.599, 147.026 259.068, 166.500 256.474 C 182.740 254.311, 183.742 254.082, 181.948 252.947 C 180.065 251.756, 176.495 251.890, 165.500 253.565 M 311 288.997 C 299.695 290.309, 285.695 293.603, 280.832 296.096 C 278.450 297.317, 276.995 298.485, 277.600 298.691 C 278.205 298.898, 284.955 297.898, 292.600 296.469 C 317.497 291.816, 342.389 292.007, 361.220 296.995 C 373.192 300.166, 373.792 300.155, 367 296.889 C 352.714 290.018, 329.897 286.803, 311 288.997 M 171.500 289.642 C 160.196 291.421, 136.214 298.547, 137.432 299.765 C 137.696 300.029, 141.869 299.300, 146.706 298.143 C 172.074 292.079, 195.244 291.738, 220.909 297.052 C 233.113 299.579, 234.555 299.456, 228.664 296.390 C 219.423 291.582, 210.037 289.840, 191.500 289.490 C 182.150 289.314, 173.150 289.382, 171.500 289.642 M 269 304.914 C 267.159 305.441, 268.444 305.815, 273.879 306.334 C 287.833 307.666, 303.515 314.123, 316.312 323.807 C 322.712 328.650, 335.825 344.225, 345.790 358.819 C 355.467 372.992, 358.494 377.999, 366.760 393.500 C 370.279 400.100, 372.927 404.825, 372.644 404 C 371.198 399.779, 365.101 385.075, 363.587 382.157 C 362.633 380.318, 362.067 378.600, 362.329 378.337 C 362.592 378.075, 364.762 378.812, 367.153 379.975 C 370.189 381.452, 370.897 381.591, 369.500 380.438 C 368.400 379.530, 366.076 378.170, 364.336 377.416 C 362.188 376.485, 360.131 374.193, 357.926 370.273 C 356.140 367.098, 351.377 359.682, 347.340 353.794 C 343.303 347.906, 340 342.779, 340 342.400 C 340 341.248, 355.335 342.912, 363.148 344.912 C 367.192 345.947, 374.656 348.587, 379.735 350.778 C 384.815 352.969, 388.732 354.376, 388.441 353.905 C 387.344 352.130, 375.215 346.038, 368 343.638 C 360.282 341.071, 344.429 338.807, 340 339.639 C 337.885 340.036, 336.381 338.842, 330.228 331.877 C 326.228 327.349, 323.332 323.268, 323.793 322.807 C 325.844 320.756, 339.692 318.813, 348.500 319.341 C 355.193 319.742, 356.859 319.617, 355 318.853 C 350.052 316.818, 337.494 316.645, 327.767 318.476 L 318.442 320.231 313.748 317.063 C 299.722 307.596, 279.151 302.012, 269 304.914 M 218.322 306.527 C 211.914 308.254, 205.400 311.242, 197.194 316.221 C 191.146 319.891, 190.717 319.999, 186.694 318.875 C 180.319 317.094, 161.651 317.344, 154 319.312 C 145.961 321.381, 130.069 329.215, 126.874 332.685 C 124.602 335.152, 124.736 335.126, 130 332.077 C 146.717 322.394, 162.032 318.700, 178.254 320.437 C 189.046 321.593, 189.160 322.192, 180.394 331.750 C 176.233 336.288, 172.015 340, 171.021 340 C 165.798 340, 144.849 346.396, 135.600 350.814 C 124.690 356.025, 119.754 359.875, 129.680 355.431 C 143.831 349.096, 169.009 341.676, 170.682 343.348 C 171.018 343.685, 169.269 347.006, 166.795 350.730 C 160.448 360.285, 154.443 370.839, 150.862 378.733 C 147.522 386.099, 139 407.673, 139 408.765 C 139 409.137, 143.855 399.779, 149.788 387.970 C 162.451 362.769, 169.453 351.233, 180.198 337.875 C 190.367 325.233, 195.312 321.088, 207.500 314.990 C 218.487 309.493, 226.840 307, 234.269 307 C 237.247 307, 238.880 306.614, 238.500 306 C 237.604 304.550, 224.376 304.896, 218.322 306.527 M 366.018 313.817 C 370.152 316.466, 376.452 321.312, 380.018 324.587 C 383.583 327.861, 387.382 331.206, 388.461 332.020 C 392.416 335.005, 386.293 327.486, 380.205 321.881 C 374.775 316.882, 362.177 309, 359.618 309 C 359.003 309, 361.883 311.168, 366.018 313.817 M 224.943 317.945 C 213.737 324.669, 206.918 333.508, 201.772 347.978 C 199.444 354.522, 198.211 374.552, 199.799 380 C 200.671 382.991, 200.833 382.076, 200.910 373.708 C 201.062 357.190, 204.906 342.762, 211.767 332.959 C 215.160 328.110, 223.643 320.130, 230.005 315.802 C 234.573 312.694, 231.588 313.958, 224.943 317.945 M 250.914 319.605 C 248.966 321.955, 248.893 389.982, 250.820 407.500 C 253.029 427.578, 255.978 446.902, 258.668 458.932 C 262.011 473.882, 268.615 497.015, 269.908 498.308 C 270.919 499.319, 287 500.699, 287 499.775 C 287 499.509, 285.037 495.064, 282.639 489.896 C 268.729 459.928, 261.902 423.203, 259.979 368 C 259.395 351.225, 258.598 333.225, 258.208 328 C 257.518 318.739, 257.435 318.492, 254.914 318.199 C 253.394 318.023, 251.746 318.601, 250.914 319.605 M 303.227 347.515 C 306.444 353.930, 307.762 358.072, 309.992 368.783 C 311.447 375.766, 311.827 376.691, 311.904 373.434 C 312.128 363.940, 306.864 347.622, 302.376 343.897 C 301.202 342.922, 301.446 343.963, 303.227 347.515" stroke="none" fill="#436D21" fill-rule="evenodd"/>
</svg>